<svg width="62" height="62" viewBox="0 0 62 62" fill="none" xmlns="http://www.w3.org/2000/svg">
<g id="iconamoon:search-fill">
<path id="Vector" fill-rule="evenodd" clip-rule="evenodd" d="M28.4167 5.16666C24.7028 5.16706 21.0431 6.05713 17.7438 7.76237C14.4446 9.46761 11.6019 11.9384 9.45363 14.9679C7.30537 17.9974 5.9141 21.4974 5.39629 25.175C4.87848 28.8526 5.24919 32.6007 6.47739 36.1056C7.70559 39.6105 9.75554 42.7702 12.4556 45.3201C15.1557 47.8701 18.4274 49.7361 21.9968 50.762C25.5661 51.7879 29.3293 51.9438 32.9713 51.2167C36.6133 50.4895 40.0281 48.9005 42.9298 46.5827L52.4236 56.0764C52.9108 56.547 53.5634 56.8074 54.2407 56.8015C54.9181 56.7956 55.566 56.5239 56.045 56.0449C56.5239 55.566 56.7956 54.918 56.8015 54.2407C56.8074 53.5634 56.547 52.9108 56.0764 52.4236L46.5827 42.9298C49.3158 39.5091 51.0275 35.3862 51.5207 31.0356C52.0139 26.6849 51.2686 22.2835 49.3705 18.3378C47.4724 14.3921 44.4988 11.0625 40.7918 8.73241C37.0848 6.40229 32.7952 5.16628 28.4167 5.16666ZM12.9167 28.4167C12.9167 26.3812 13.3176 24.3656 14.0965 22.4851C14.8755 20.6045 16.0172 18.8958 17.4565 17.4565C18.8958 16.0172 20.6045 14.8755 22.4851 14.0965C24.3656 13.3176 26.3812 12.9167 28.4167 12.9167C30.4522 12.9167 32.4677 13.3176 34.3483 14.0965C36.2288 14.8755 37.9375 16.0172 39.3768 17.4565C40.8161 18.8958 41.9579 20.6045 42.7368 22.4851C43.5158 24.3656 43.9167 26.3812 43.9167 28.4167C43.9167 32.5275 42.2836 36.47 39.3768 39.3768C36.47 42.2836 32.5275 43.9167 28.4167 43.9167C24.3058 43.9167 20.3633 42.2836 17.4565 39.3768C14.5497 36.47 12.9167 32.5275 12.9167 28.4167Z" fill="#273653"/>
</g>
</svg>
