<svg width="62" height="62" viewBox="0 0 62 62" fill="none" xmlns="http://www.w3.org/2000/svg">
<g id="mdi:charity-outline">
<path id="Vector" d="M41.3334 5.16666C34.2034 5.16666 28.4167 10.9533 28.4167 18.0833C28.4167 25.2133 34.2034 31 41.3334 31C48.4634 31 54.25 25.2133 54.25 18.0833C54.25 10.9533 48.4634 5.16666 41.3334 5.16666ZM41.3334 25.8333C37.045 25.8333 33.5834 22.3717 33.5834 18.0833C33.5834 13.795 37.045 10.3333 41.3334 10.3333C45.6217 10.3333 49.0834 13.795 49.0834 18.0833C49.0834 22.3717 45.6217 25.8333 41.3334 25.8333ZM49.0834 41.3333H43.9167C43.9167 38.2333 41.9792 35.4433 39.0859 34.3583L23.1725 28.4167H2.58337V56.8333H18.0834V53.1133L36.1667 58.125L56.8334 51.6667V49.0833C56.8334 44.795 53.3717 41.3333 49.0834 41.3333ZM12.9167 51.6667H7.75004V33.5833H12.9167V51.6667ZM36.0892 52.7258L18.0834 47.7917V33.5833H22.2425L37.2775 39.1892C38.1559 39.525 38.75 40.3775 38.75 41.3333C38.75 41.3333 33.5834 41.2042 32.8084 40.9458L26.66 38.905L25.0325 43.8133L31.1809 45.8542C32.4984 46.2933 33.8675 46.5 35.2625 46.5H49.0834C50.0909 46.5 50.995 47.12 51.4084 47.9725L36.0892 52.7258Z" fill="#273653"/>
</g>
</svg>
