<svg width="62" height="62" viewBox="0 0 62 62" fill="none" xmlns="http://www.w3.org/2000/svg">
<g id="pajamas:information" clip-path="url(#clip0_9_64)">
<path id="Vector" fill-rule="evenodd" clip-rule="evenodd" d="M31 62C39.2217 62 47.1067 58.7339 52.9203 52.9203C58.7339 47.1067 62 39.2217 62 31C62 22.7783 58.7339 14.8933 52.9203 9.07969C47.1067 3.26606 39.2217 0 31 0C22.7783 0 14.8933 3.26606 9.07969 9.07969C3.26606 14.8933 0 22.7783 0 31C0 39.2217 3.26606 47.1067 9.07969 52.9203C14.8933 58.7339 22.7783 62 31 62ZM34.875 19.375C34.875 20.4027 34.4667 21.3883 33.74 22.115C33.0133 22.8417 32.0277 23.25 31 23.25C29.9723 23.25 28.9867 22.8417 28.26 22.115C27.5333 21.3883 27.125 20.4027 27.125 19.375C27.125 18.3473 27.5333 17.3617 28.26 16.635C28.9867 15.9083 29.9723 15.5 31 15.5C32.0277 15.5 33.0133 15.9083 33.74 16.635C34.4667 17.3617 34.875 18.3473 34.875 19.375ZM27.125 27.125C26.3542 27.125 25.615 27.4312 25.07 27.9762C24.5249 28.5212 24.2188 29.2605 24.2188 30.0312C24.2188 30.802 24.5249 31.5413 25.07 32.0863C25.615 32.6313 26.3542 32.9375 27.125 32.9375H28.0938V40.6875H24.2188C23.448 40.6875 22.7087 40.9937 22.1637 41.5387C21.6187 42.0838 21.3125 42.823 21.3125 43.5938C21.3125 44.3645 21.6187 45.1037 22.1637 45.6488C22.7087 46.1938 23.448 46.5 24.2188 46.5H37.7812C38.552 46.5 39.2912 46.1938 39.8363 45.6488C40.3813 45.1037 40.6875 44.3645 40.6875 43.5938C40.6875 42.823 40.3813 42.0838 39.8363 41.5387C39.2912 40.9937 38.552 40.6875 37.7812 40.6875H33.9062V27.125H27.125Z" fill="#273653"/>
</g>
<defs>
<clipPath id="clip0_9_64">
<rect width="62" height="62" fill="white"/>
</clipPath>
</defs>
</svg>
